<svg width="1600" height="1000" viewBox="0 0 1600 1000" fill="none" xmlns="http://www.w3.org/2000/svg">
  <defs>
    <linearGradient id="bg" x1="120" y1="80" x2="1480" y2="920" gradientUnits="userSpaceOnUse">
      <stop stop-color="#06131D"/>
      <stop offset="0.45" stop-color="#0B2230"/>
      <stop offset="1" stop-color="#101A26"/>
    </linearGradient>
    <linearGradient id="panel" x1="0" y1="0" x2="1" y2="1">
      <stop stop-color="#0F2E3C" stop-opacity="0.95"/>
      <stop offset="1" stop-color="#132231" stop-opacity="0.95"/>
    </linearGradient>
    <linearGradient id="accentBlue" x1="0" y1="0" x2="1" y2="1">
      <stop stop-color="#43C8FF"/>
      <stop offset="1" stop-color="#0C84FF"/>
    </linearGradient>
    <linearGradient id="accentMint" x1="0" y1="0" x2="1" y2="1">
      <stop stop-color="#55F0C9"/>
      <stop offset="1" stop-color="#19BFA3"/>
    </linearGradient>
    <linearGradient id="accentOrange" x1="0" y1="0" x2="1" y2="1">
      <stop stop-color="#FFC05A"/>
      <stop offset="1" stop-color="#FF7A18"/>
    </linearGradient>
    <linearGradient id="accentPink" x1="0" y1="0" x2="1" y2="1">
      <stop stop-color="#FF7AC8"/>
      <stop offset="1" stop-color="#FF4D7A"/>
    </linearGradient>
    <filter id="softGlow" x="-20%" y="-20%" width="140%" height="140%">
      <feGaussianBlur stdDeviation="18" result="blur"/>
      <feMerge>
        <feMergeNode in="blur"/>
        <feMergeNode in="SourceGraphic"/>
      </feMerge>
    </filter>
    <filter id="cardShadow" x="-20%" y="-20%" width="140%" height="160%">
      <feDropShadow dx="0" dy="16" stdDeviation="24" flood-color="#000000" flood-opacity="0.35"/>
    </filter>
    <style>
      .title { font: 700 56px 'SF Pro Display', 'PingFang SC', 'Microsoft YaHei', sans-serif; fill: #F5FBFF; }
      .subtitle { font: 400 22px 'SF Pro Display', 'PingFang SC', 'Microsoft YaHei', sans-serif; fill: #B9D1DE; }
      .section { font: 700 26px 'SF Pro Display', 'PingFang SC', 'Microsoft YaHei', sans-serif; fill: #F5FBFF; }
      .label { font: 600 18px 'SF Pro Display', 'PingFang SC', 'Microsoft YaHei', sans-serif; fill: #DFF4FF; }
      .body { font: 400 17px 'SF Pro Text', 'PingFang SC', 'Microsoft YaHei', sans-serif; fill: #BFD2DC; }
      .small { font: 500 15px 'SF Pro Text', 'PingFang SC', 'Microsoft YaHei', sans-serif; fill: #9FC0CE; }
      .mono { font: 600 16px 'SF Mono', 'JetBrains Mono', 'Menlo', monospace; fill: #E8F7FF; }
      .pill { font: 700 14px 'SF Pro Text', 'PingFang SC', 'Microsoft YaHei', sans-serif; fill: #06131D; }
      .metric { font: 700 18px 'SF Pro Display', 'PingFang SC', 'Microsoft YaHei', sans-serif; fill: #F5FBFF; }
    </style>
  </defs>

  <rect width="1600" height="1000" fill="url(#bg)"/>
  <circle cx="1400" cy="140" r="220" fill="#12334B" fill-opacity="0.55"/>
  <circle cx="1460" cy="120" r="120" fill="#1D6D93" fill-opacity="0.22"/>
  <circle cx="170" cy="890" r="240" fill="#0C6A76" fill-opacity="0.18"/>
  <circle cx="330" cy="120" r="110" fill="#2D8AFF" fill-opacity="0.18"/>

  <rect x="64" y="54" width="1472" height="892" rx="30" fill="#0A1520" fill-opacity="0.52" stroke="#284658" stroke-opacity="0.72"/>

  <g filter="url(#softGlow)">
    <rect x="86" y="82" width="124" height="42" rx="21" fill="url(#accentMint)"/>
  </g>
  <text x="114" y="110" class="pill">AI Workflow OS</text>
  <text x="86" y="180" class="title">xdev 技术总览图</text>
  <text x="86" y="220" class="subtitle">面向 Claude Code 与 Windsurf 的 AI 原生开发工作流编排层</text>
  <text x="86" y="254" class="subtitle">核心定位：不是单个命令集合，而是“需求到发布”的全生命周期 orchestration engine</text>

  <g filter="url(#cardShadow)">
    <rect x="82" y="308" width="314" height="560" rx="28" fill="url(#panel)" stroke="#2B566B"/>
    <rect x="420" y="308" width="700" height="560" rx="28" fill="url(#panel)" stroke="#2B566B"/>
    <rect x="1144" y="308" width="374" height="560" rx="28" fill="url(#panel)" stroke="#2B566B"/>
  </g>

  <text x="108" y="350" class="section">01 输入层</text>
  <text x="108" y="378" class="body">开发者只描述目标，xdev 自动选路径并推进执行。</text>

  <rect x="108" y="408" width="262" height="82" rx="20" fill="#10212D" stroke="#2C5166"/>
  <text x="128" y="438" class="mono">/xdev:full-dev</text>
  <text x="128" y="466" class="body">新功能 / 大型重构</text>

  <rect x="108" y="506" width="262" height="82" rx="20" fill="#10212D" stroke="#2C5166"/>
  <text x="128" y="536" class="mono">/xdev:bugfix</text>
  <text x="128" y="564" class="body">Bug / 崩溃 / 异常行为</text>

  <rect x="108" y="604" width="262" height="82" rx="20" fill="#10212D" stroke="#2C5166"/>
  <text x="128" y="634" class="mono">/xdev:iterate</text>
  <text x="128" y="662" class="body">小改动 / 优化 / 配置调整</text>

  <rect x="108" y="702" width="262" height="82" rx="20" fill="#10212D" stroke="#2C5166"/>
  <text x="128" y="732" class="mono">/xdev:map</text>
  <text x="128" y="760" class="body">生成代码库快照，降低冷启动成本</text>

  <rect x="108" y="808" width="262" height="38" rx="19" fill="#173446"/>
  <text x="127" y="833" class="small">输入形式：自然语言需求 + slash command</text>

  <text x="446" y="350" class="section">02 编排引擎</text>
  <text x="446" y="378" class="body">自适应执行、依赖感知并行、质量门禁与失败回路共同组成核心控制面。</text>

  <rect x="446" y="408" width="226" height="112" rx="22" fill="#102635" stroke="#2F6A84"/>
  <rect x="690" y="408" width="226" height="112" rx="22" fill="#102635" stroke="#2F6A84"/>
  <rect x="934" y="408" width="220" height="112" rx="22" fill="#102635" stroke="#2F6A84"/>

  <text x="466" y="442" class="label">复杂度判定</text>
  <text x="466" y="470" class="body">自动识别 S1 / S2 / S3</text>
  <text x="466" y="494" class="body">或 full-dev / iterate 路径</text>

  <text x="710" y="442" class="label">依赖图分析</text>
  <text x="710" y="470" class="body">能并行的任务交给 subagents</text>
  <text x="710" y="494" class="body">有前置依赖的任务串行推进</text>

  <text x="954" y="442" class="label">质量门禁</text>
  <text x="954" y="470" class="body">测试 / health / qa / review</text>
  <text x="954" y="494" class="body">未通过不得进入下一阶段</text>

  <path d="M672 464H688" stroke="url(#accentBlue)" stroke-width="4" stroke-linecap="round"/>
  <path d="M916 464H932" stroke="url(#accentBlue)" stroke-width="4" stroke-linecap="round"/>

  <rect x="446" y="550" width="708" height="126" rx="24" fill="#0F2030" stroke="#2B566B"/>
  <text x="472" y="586" class="label">可靠性机制</text>
  <text x="472" y="616" class="body">• Session Recovery：基于 `docs/state/` 记录工作流阶段，支持中断恢复</text>
  <text x="472" y="644" class="body">• Structured Pass Criteria：验证命令、期望退出码、必须包含的输出全部结构化</text>

  <rect x="446" y="700" width="340" height="130" rx="24" fill="#102635" stroke="#2F6A84"/>
  <text x="472" y="736" class="label">风险控制</text>
  <text x="472" y="766" class="body">🔴 高风险：必须确认</text>
  <text x="472" y="792" class="body">🟡 中风险：通知即继续</text>
  <text x="472" y="818" class="body">🟢 低风险：自动执行</text>

  <rect x="814" y="700" width="340" height="130" rx="24" fill="#102635" stroke="#2F6A84"/>
  <text x="840" y="736" class="label">方法论优势</text>
  <text x="840" y="766" class="body">不是单次 prompt，而是完整工程流水线</text>
  <text x="840" y="792" class="body">让 skill 在正确时机按正确顺序运行</text>

  <text x="1170" y="350" class="section">03 输出路径</text>
  <text x="1170" y="378" class="body">主流程覆盖开发主场景，结果沉淀为计划与状态文件。</text>

  <rect x="1170" y="410" width="322" height="118" rx="22" fill="#112131" stroke="#33637A"/>
  <rect x="1184" y="422" width="88" height="28" rx="14" fill="url(#accentBlue)"/>
  <text x="1206" y="442" class="pill">FULL DEV</text>
  <text x="1204" y="480" class="metric">8 阶段端到端</text>
  <text x="1204" y="508" class="small">探索 → 审查 → TDD → 质量 → 发布</text>

  <rect x="1170" y="550" width="322" height="118" rx="22" fill="#112131" stroke="#33637A"/>
  <rect x="1184" y="562" width="82" height="28" rx="14" fill="url(#accentOrange)"/>
  <text x="1206" y="582" class="pill">BUGFIX</text>
  <text x="1204" y="620" class="metric">S1 / S2 / S3 分级</text>
  <text x="1204" y="648" class="small">快速 / 标准 / 深度调查三层修复</text>

  <rect x="1170" y="690" width="322" height="118" rx="22" fill="#112131" stroke="#33637A"/>
  <rect x="1184" y="702" width="82" height="28" rx="14" fill="url(#accentMint)"/>
  <text x="1205" y="722" class="pill">ITERATE</text>
  <text x="1204" y="760" class="metric">范围门控快路径</text>
  <text x="1204" y="788" class="small">TDD → health → qa → ship</text>

  <path d="M396 588C422 588 426 588 446 588" stroke="url(#accentMint)" stroke-width="6" stroke-linecap="round"/>
  <path d="M1120 588C1140 588 1144 588 1170 588" stroke="url(#accentMint)" stroke-width="6" stroke-linecap="round"/>
  <polygon points="438,578 458,588 438,598" fill="#3FE2BE"/>
  <polygon points="1162,578 1182,588 1162,598" fill="#3FE2BE"/>

  <g opacity="0.9">
    <rect x="86" y="892" width="1428" height="34" rx="17" fill="#10212D" stroke="#27485C"/>
    <text x="112" y="915" class="small">底层生态：gstack + superpowers + frontend-design / ui-ux-pro-max 等现有 skills 被 xdev 编排成统一交付流水线；文档沉淀在 `docs/plans/`，状态沉淀在 `docs/state/`。</text>
  </g>
</svg>
